<?xml version="1.0" encoding="UTF-8" standalone="no"?><svg xmlns="http://www.w3.org/2000/svg" xmlns:xlink="http://www.w3.org/1999/xlink" fill="none" height="33" style="fill: none" viewBox="0 0 124 33" width="124"><path d="M32.8699 17.3449V21.7952H30.3542V9.80322H34.9396C36.4264 9.80322 37.5446 10.1429 38.2939 10.8224C39.0551 11.5018 39.4357 12.4247 39.4357 13.5911C39.4357 14.7348 39.0433 15.6463 38.2582 16.3258C37.485 17.0052 36.3789 17.3449 34.9396 17.3449H32.8699ZM34.672 15.4255C36.1469 15.4255 36.8844 14.814 36.8844 13.5911C36.8844 12.9909 36.7119 12.5323 36.367 12.2152C36.022 11.8981 35.457 11.7396 34.672 11.7396H32.8699V15.4255H34.672Z" fill="#fbfff9"/><path d="M44.9418 12.2661C45.7745 12.2661 46.4882 12.453 47.0829 12.8267C47.6776 13.2003 48.0999 13.7042 48.3497 14.3384V12.385H50.8475V21.7952H48.3497V19.8248C48.0999 20.459 47.6776 20.9685 47.0829 21.3535C46.4882 21.7272 45.7745 21.914 44.9418 21.914C44.1093 21.914 43.3599 21.7216 42.6938 21.3365C42.0277 20.9515 41.5043 20.3967 41.1237 19.6719C40.755 18.9358 40.5706 18.0752 40.5706 17.0901C40.5706 16.1049 40.755 15.2499 41.1237 14.5252C41.5043 13.7892 42.0277 13.2286 42.6938 12.8436C43.3599 12.4586 44.1093 12.2661 44.9418 12.2661ZM45.7269 14.3554C44.9418 14.3554 44.3114 14.5988 43.8357 15.0857C43.3599 15.5727 43.122 16.2408 43.122 17.0901C43.122 17.9394 43.3599 18.6075 43.8357 19.0944C44.3114 19.57 44.9418 19.8078 45.7269 19.8078C46.4882 19.8078 47.1126 19.5643 47.6003 19.0774C48.0999 18.5792 48.3497 17.9167 48.3497 17.0901C48.3497 16.2521 48.0999 15.5897 47.6003 15.1028C47.1126 14.6045 46.4882 14.3554 45.7269 14.3554Z" fill="#fbfff9"/><path d="M54.8218 12.385L57.5159 18.7716L60.0138 12.385H62.7792L56.7309 26.2794H53.9475L56.1777 21.5233L52.0206 12.385H54.8218Z" fill="#fbfff9"/><path d="M69.4313 10.2622C71.0014 10.2622 72.3039 10.6472 73.3387 11.4172C74.3736 12.1873 75.0575 13.2347 75.3905 14.5596H72.75C72.4764 13.9142 72.0481 13.4046 71.4653 13.0309C70.8944 12.6572 70.2045 12.4704 69.3957 12.4704C68.7296 12.4704 68.1289 12.6289 67.5936 12.946C67.0584 13.263 66.6421 13.716 66.3447 14.3048C66.0474 14.8936 65.8986 15.5844 65.8986 16.3771C65.8986 17.1584 66.0474 17.8436 66.3447 18.4323C66.6421 19.0212 67.0584 19.4741 67.5936 19.7912C68.1289 20.1082 68.7296 20.2668 69.3957 20.2668C70.2045 20.2668 70.8944 20.08 71.4653 19.7063C72.0481 19.3326 72.4764 18.823 72.75 18.1776H75.3905C75.0575 19.5025 74.3736 20.5499 73.3387 21.32C72.3039 22.09 71.0014 22.475 69.4313 22.475C68.23 22.475 67.1654 22.2202 66.2377 21.7106C65.3218 21.1897 64.6081 20.465 64.0966 19.5364C63.597 18.6078 63.3473 17.5548 63.3473 16.3771C63.3473 15.1881 63.597 14.1293 64.0966 13.2007C64.6081 12.2722 65.3218 11.5531 66.2377 11.0436C67.1535 10.5227 68.2181 10.2622 69.4313 10.2622Z" fill="#fbfff9"/><path d="M86.5734 17.3108C86.5734 17.5486 86.5436 17.8203 86.4842 18.1261H79.2403C79.276 18.9641 79.5138 19.5812 79.954 19.9776C80.3941 20.3739 80.9412 20.572 81.5954 20.572C82.1782 20.572 82.66 20.4362 83.0406 20.1644C83.4331 19.8926 83.683 19.5246 83.79 19.0603H86.4484C86.3176 19.717 86.0381 20.3059 85.6098 20.8269C85.1817 21.3477 84.6286 21.7553 83.9506 22.0498C83.2845 22.3442 82.541 22.4914 81.7203 22.4914C80.7569 22.4914 79.9004 22.2989 79.151 21.9139C78.4017 21.5175 77.8189 20.957 77.4026 20.2323C76.9862 19.5076 76.7781 18.6526 76.7781 17.6674C76.7781 16.6823 76.9862 15.8273 77.4026 15.1026C77.8189 14.3666 78.4017 13.806 79.151 13.421C79.9004 13.036 80.7569 12.8435 81.7203 12.8435C82.6957 12.8435 83.5462 13.036 84.2717 13.421C85.0092 13.806 85.5741 14.3383 85.9667 15.0177C86.3711 15.6858 86.5734 16.4502 86.5734 17.3108ZM84.0397 17.073C84.0754 16.3029 83.8614 15.7198 83.3974 15.3235C82.9454 14.9271 82.3864 14.7289 81.7203 14.7289C81.0423 14.7289 80.4713 14.9271 80.0075 15.3235C79.5436 15.7198 79.2878 16.3029 79.2403 17.073H84.0397Z" fill="#fbfff9"/><path d="M94.2473 12.8267C95.3891 12.8267 96.2991 13.1834 96.9771 13.8968C97.6551 14.6102 97.9941 15.6123 97.9941 16.9033V22.3726H95.4962V17.175C95.4962 16.4277 95.294 15.8501 94.8895 15.4425C94.4851 15.0235 93.932 14.814 93.2303 14.814C92.5166 14.814 91.9456 15.0348 91.5175 15.4765C91.0892 15.9181 90.8751 16.5522 90.8751 17.3789V22.3726H88.3594V12.9626H90.8751V14.848C91.1368 14.2138 91.5651 13.7212 92.1598 13.3702C92.7664 13.0078 93.4623 12.8267 94.2473 12.8267Z" fill="#fbfff9"/><path d="M105.489 20.3169V22.3721H104.168C103.062 22.3721 102.212 22.1174 101.617 21.6079C101.034 21.0982 100.743 20.2489 100.743 19.0599V14.9833H99.3689V12.9621H100.743V10.635H103.258V12.9621H105.471V14.9833H103.258V19.094C103.258 19.5468 103.354 19.8639 103.544 20.0452C103.734 20.2263 104.055 20.3169 104.507 20.3169H105.489Z" fill="#fbfff9"/><path d="M109.815 14.7631C110.183 14.1629 110.671 13.6929 111.278 13.3532C111.884 13.0022 112.562 12.8267 113.312 12.8267V15.3916H112.58C110.737 15.3916 109.815 16.2068 109.815 17.8375V22.3726H107.299V12.9626H109.815V14.7631Z" fill="#fbfff9"/><path d="M124 17.3108C124 17.5486 123.97 17.8203 123.91 18.1261H116.666C116.702 18.9641 116.941 19.5812 117.38 19.9776C117.82 20.3739 118.368 20.572 119.022 20.572C119.604 20.572 120.086 20.4362 120.467 20.1644C120.859 19.8926 121.109 19.5246 121.216 19.0603H123.875C123.744 19.717 123.465 20.3059 123.037 20.8269C122.608 21.3477 122.055 21.7553 121.377 22.0498C120.71 22.3442 119.967 22.4914 119.147 22.4914C118.183 22.4914 117.327 22.2989 116.578 21.9139C115.828 21.5175 115.245 20.957 114.828 20.2323C114.413 19.5076 114.205 18.6526 114.205 17.6674C114.205 16.6823 114.413 15.8273 114.828 15.1026C115.245 14.3666 115.828 13.806 116.578 13.421C117.327 13.036 118.183 12.8435 119.147 12.8435C120.122 12.8435 120.972 13.036 121.698 13.421C122.435 13.806 123.001 14.3383 123.393 15.0177C123.797 15.6858 124 16.4502 124 17.3108ZM121.466 17.073C121.501 16.3029 121.287 15.7198 120.824 15.3235C120.372 14.9271 119.812 14.7289 119.147 14.7289C118.469 14.7289 117.898 14.9271 117.434 15.3235C116.97 15.7198 116.714 16.3029 116.666 17.073H121.466Z" fill="#fbfff9"/><ellipse cx="11.167" cy="11.3" fill="#ffffff" rx="9.209" ry="9.018"/><path clip-rule="evenodd" d="M11.3015 33L3.43999 19.4609C2.90745 18.8198 2.49576 18.0121 2.02835 17.0951L2.02833 17.0951C1.80547 16.6579 1.56995 16.1958 1.30261 15.7151C0.351148 14.0017 -0.0934405 12.0742 0.0163552 10.139C0.126151 8.20363 0.786205 6.33308 1.92599 4.72715C3.14654 3.0052 4.86538 1.65711 6.87429 0.846174C8.59859 0.15131 10.478 -0.122299 12.3416 0.0502132C14.2052 0.222726 15.994 0.835891 17.5454 1.83398C19.3539 2.99606 20.7698 4.63239 21.6215 6.54483C22.2077 7.86379 22.5084 9.28185 22.5054 10.7141C22.505 12.4433 22.0652 14.1468 21.2233 15.6791C20.9817 16.1189 20.7595 16.5535 20.547 16.9692C20.019 18.0019 19.5502 18.9188 18.9895 19.5137L11.3015 33ZM16.7396 11.8025C16.767 11.8493 16.7921 11.896 16.8168 11.942C16.8535 12.0103 16.8892 12.0769 16.9299 12.1388C16.9567 12.1643 16.9869 12.1867 17.0172 12.2091C17.048 12.232 17.079 12.2549 17.1064 12.2812C17.0462 12.2047 16.9861 12.1251 16.9259 12.0456C16.8638 11.9635 16.8017 11.8813 16.7396 11.8025ZM9.33364 15.5272C7.75679 14.9063 6.25463 14.1259 4.85306 13.1993C4.71695 13.4836 7.63759 15.2816 9.33364 15.5272ZM4.67743 12.604C5.04725 12.9025 5.43265 13.1831 5.83216 13.4447C6.62131 13.9709 7.45783 14.4296 8.33192 14.8154C8.76668 15.0094 9.21487 15.1778 9.66306 15.3329C10.1113 15.4881 10.5733 15.6173 11.0349 15.734C11.4966 15.8508 11.9586 15.9408 12.4342 16.0183C12.1896 15.902 11.9452 15.7856 11.7142 15.6693C11.5781 15.626 11.4481 15.5835 11.316 15.5403L11.1164 15.4753C10.6732 15.3328 10.2378 15.1688 9.81216 14.9838C9.3774 14.8027 8.96995 14.6087 8.54862 14.402C7.72688 13.9826 6.94118 13.5022 6.19887 12.9651C5.83216 12.6936 5.46546 12.4109 5.11219 12.1245C4.89503 11.9433 4.67743 11.7494 4.4737 11.5555L5.1395 10.9216C5.18047 10.8826 5.21994 10.8436 5.25891 10.805L5.25905 10.8049L5.25907 10.8049C5.33629 10.7285 5.41157 10.6541 5.49277 10.5853C5.2483 10.301 5.0307 10.0423 4.85429 9.80947C4.77408 9.87804 4.694 9.95117 4.61398 10.0242L4.61396 10.0243L4.61393 10.0243L4.61391 10.0243L4.61389 10.0243L4.61386 10.0243L4.61384 10.0244C4.54471 10.0875 4.47563 10.1506 4.40655 10.2106C4.09312 10.495 3.7797 10.7797 3.48285 11.0631C3.45616 11.0885 3.42803 11.1139 3.3994 11.1398L3.39936 11.1398L3.39932 11.1399L3.39928 11.1399L3.39924 11.1399L3.39919 11.14L3.39918 11.14C3.34047 11.193 3.27967 11.2479 3.22494 11.3087C3.34492 11.4358 3.47196 11.5568 3.60553 11.6709C3.94402 11.9962 4.29863 12.3069 4.67743 12.604ZM6.6771 11.4402C6.37621 11.0778 6.07936 10.716 5.79415 10.3408C5.56404 10.0294 5.35213 9.71791 5.13615 9.40047L5.13612 9.40044L5.13606 9.40035C5.0831 9.32251 5.02989 9.24431 4.97611 9.16566C4.94559 9.11265 4.91318 9.0594 4.88029 9.00537C4.82539 8.91517 4.76918 8.82281 4.71821 8.72577C4.77371 8.69968 4.82543 8.6702 4.87707 8.64077C4.92751 8.61202 4.97788 8.58331 5.03164 8.55782C5.21234 8.46482 5.39001 8.36921 5.56757 8.27366C5.76354 8.1682 5.95939 8.06281 6.15906 7.96106C6.29077 7.88424 6.42994 7.81427 6.56527 7.74623L6.56533 7.7462L6.56562 7.74605C6.61189 7.72279 6.6577 7.69975 6.70262 7.67674C6.81143 7.93549 6.94709 8.24581 7.11007 8.58212C7.03528 8.62092 6.96396 8.66292 6.89263 8.70491C6.82135 8.74689 6.75006 8.78886 6.67531 8.82764L6.59695 8.87223L6.59691 8.87225C6.35164 9.01187 6.10603 9.15167 5.86042 9.28033C6.00906 9.51307 6.15951 9.74577 6.32249 9.97857C6.58039 10.3536 6.85202 10.7159 7.13738 11.0651C7.71651 11.7627 8.34768 12.4197 9.02597 13.031C9.36304 13.3413 9.71678 13.6349 10.0858 13.9104C10.452 14.1947 10.8192 14.4534 11.2132 14.7121C11.301 14.7637 11.389 14.8185 11.477 14.8732C11.5656 14.9285 11.6543 14.9837 11.7429 15.0356C11.9332 15.2168 12.1369 15.3852 12.3406 15.5531C11.9042 15.367 11.478 15.1599 11.0636 14.9325C10.6562 14.7121 10.2488 14.4666 9.85474 14.2079C9.45974 13.9506 9.07881 13.6744 8.71344 13.3801C7.98143 12.7861 7.30047 12.1374 6.6771 11.4402ZM10.003 13.1724C8.96077 11.8841 8.068 10.4922 7.3403 9.02104C7.20069 9.10731 7.06108 9.19707 6.92153 9.28679C6.78941 9.37173 6.65735 9.45663 6.52539 9.53851C7.475 10.9176 8.64886 12.1442 10.003 13.1724ZM8.04703 9.69331C7.84331 9.28111 7.65302 8.85443 7.49004 8.41453C7.31444 7.98023 7.16495 7.53678 7.04229 7.08631C6.98946 6.91794 6.94871 6.76279 6.90797 6.59484C6.96985 6.58189 7.02829 6.56555 7.08677 6.54921L7.08678 6.5492L7.0868 6.5492C7.14383 6.53326 7.2009 6.51731 7.26125 6.50447L7.4249 6.46378L7.42495 6.46377C7.78841 6.3733 8.1444 6.28469 8.5109 6.20609C8.55916 6.19623 8.60835 6.18554 8.65844 6.17466L8.65846 6.17465L8.65848 6.17465C8.80542 6.14272 8.96014 6.10911 9.12207 6.08972C9.1314 6.15489 9.14072 6.22275 9.15037 6.29298C9.1829 6.52961 9.21914 6.79328 9.27162 7.07267C9.18624 7.09232 9.10087 7.11583 9.0155 7.13934C8.93789 7.16071 8.86029 7.18208 8.78268 7.20054C8.63544 7.23874 8.48494 7.27693 8.33444 7.31512L8.33443 7.31513L8.33429 7.31516C8.17914 7.35454 8.02399 7.39391 7.87242 7.43328L7.91803 7.57901L7.91804 7.57902C7.98473 7.79273 8.05307 8.01174 8.13032 8.22228C8.27986 8.64897 8.44284 9.06287 8.61925 9.47677C8.98392 10.2965 9.41537 11.0877 9.90965 11.8434C10.1541 12.218 10.4259 12.5804 10.6977 12.9426C10.9682 13.3061 11.2584 13.6558 11.5672 13.9904C11.6737 14.1111 11.7892 14.2329 11.8987 14.3483L11.9885 14.4431C12.1247 14.6634 12.2737 14.883 12.4233 15.0897C12.0561 14.7922 11.7033 14.4951 11.3635 14.1715C11.0241 13.8482 10.6981 13.5119 10.3856 13.1626C10.0713 12.814 9.77585 12.4503 9.50041 12.0731C8.94335 11.3221 8.457 10.5257 8.04703 9.69331ZM13.8051 5.19341C13.5878 5.1804 13.3738 5.1707 13.1596 5.161C12.9459 5.15131 12.732 5.14162 12.5148 5.12863C12.3664 5.12426 12.2195 5.11835 12.0732 5.11247L12.0732 5.11246C11.791 5.10111 11.5107 5.08983 11.2244 5.08983C10.803 5.07705 10.3683 5.07705 9.94744 5.07705H9.94739H9.59412V5.58131C9.59412 6.04678 9.62144 6.51225 9.66218 6.97815C9.70292 7.44405 9.77098 7.89631 9.85247 8.349C10.0246 9.25081 10.2746 10.1375 10.5998 11.0003C10.7627 11.4266 10.953 11.8529 11.1568 12.2676C11.357 12.6791 11.5792 13.0806 11.8225 13.4705C12.067 13.8716 12.3254 14.2462 12.5967 14.6214C12.8715 14.9932 13.1663 15.3515 13.4796 15.6947C13.2107 15.3235 12.9685 14.9399 12.7263 14.556L12.7185 14.5438C12.5023 14.1808 12.2986 13.8063 12.0947 13.4313L12.0527 13.3541C11.849 12.953 11.6587 12.5395 11.4957 12.1257C11.3193 11.7118 11.1697 11.285 11.0336 10.8583C10.7605 10.0086 10.5606 9.13895 10.4359 8.25821C10.3678 7.81831 10.3271 7.37884 10.3016 6.92615C10.2881 6.65462 10.2742 6.37202 10.2742 6.09836H11.2105C11.6452 6.09836 12.0661 6.08557 12.5008 6.07235L12.5008 6.07235L13.7913 6.03357C13.8964 6.02738 14.0016 6.02418 14.1053 6.02104L14.1054 6.02104H14.1054C14.2159 6.01768 14.3246 6.01438 14.4297 6.00757C14.4772 6.00757 14.5281 6.00437 14.579 6.00117C14.63 5.99798 14.6809 5.99478 14.7284 5.99478C14.7418 6.22752 14.7558 6.46025 14.7826 6.69299C14.8233 7.05531 14.8775 7.40441 14.9455 7.75352C15.0926 8.44893 15.3109 9.12893 15.5975 9.7838C15.7365 10.1111 15.8954 10.4307 16.073 10.7407C16.2494 11.051 16.4397 11.3485 16.6434 11.6461C16.6718 11.6986 16.7085 11.7466 16.7522 11.7884C16.8744 11.9564 17.1189 12.2671 17.1189 12.2671L17.187 12.3576C17.2275 12.4019 17.2639 12.4496 17.2958 12.4999C17.5306 12.7706 17.7799 13.0296 18.0431 13.2756C17.8259 12.9914 17.6217 12.7066 17.4163 12.4091C17.2523 12.152 17.0986 11.8948 16.946 11.6396L16.8726 11.5169L16.8017 11.3823C16.6629 11.1196 16.5269 10.8621 16.4106 10.586C16.2762 10.2757 16.1527 9.95217 16.03 9.62904C15.8128 8.98271 15.6493 8.32111 15.5411 7.65036C15.4846 7.31629 15.4483 6.97942 15.4323 6.64142C15.4073 6.30093 15.4028 5.95937 15.4189 5.6184C15.4189 5.55853 15.4224 5.49866 15.4259 5.44053L15.4259 5.4405L15.4259 5.44047C15.4291 5.38563 15.4323 5.33235 15.4323 5.28208C15.3738 5.27596 15.3153 5.27276 15.2582 5.26965H15.2582C15.1961 5.26626 15.1357 5.26296 15.0789 5.25608C15.0297 5.25608 14.9803 5.25263 14.9327 5.24931H14.9327C14.8887 5.24624 14.8464 5.24328 14.8072 5.24328C14.7471 5.237 14.687 5.2338 14.6269 5.23061L14.6269 5.23061C14.5648 5.2273 14.5026 5.224 14.4405 5.21728C14.2514 5.21916 14.0596 5.20808 13.8771 5.19754L13.8051 5.19341ZM14.614 10.9913C14.9384 11.1178 15.2092 11.3438 15.3834 11.6334C15.3553 11.5809 15.3372 11.5239 15.3302 11.4654C15.1823 11.1266 14.9121 10.8492 14.5684 10.6832C14.2247 10.5172 13.83 10.4735 13.4554 10.56C12.7489 10.78 12.4637 11.7241 12.9392 12.6163C12.9703 12.6837 13.0071 12.7487 13.0489 12.8107C12.6822 11.9956 12.9539 11.1679 13.5925 10.9352C13.93 10.8451 14.2895 10.8649 14.614 10.9913Z" fill="url(#a)" fill-rule="evenodd"/><defs><linearGradient gradientUnits="userSpaceOnUse" id="a" x1="11.253" x2="11.253" y1="0" y2="33"><stop stop-color="#00b9ff"/><stop offset="1" stop-color="#007fff"/></linearGradient></defs></svg>